<?xml version="1.0" encoding="UTF-8"?>
<svg xmlns="http://www.w3.org/2000/svg" viewBox="0 0 760 670" class="chart-svg" role="img" aria-label="Missingness rate by lab, 50 features">
  <style>
      text { font-family: 'IBM Plex Mono', 'SFMono-Regular', Consolas, monospace; }
      .tick-lab { font-size: 9.6px; fill: #4b585c; }
      .val-lab { font-size: 9px; fill: #7c8a8d; }
      .val-lab-r { font-size: 9.5px; fill: #4b585c; }
      .axis-lab { font-size: 9.5px; fill: #7c8a8d; }
      .axis-title { font-size: 10px; fill: #7c8a8d; }
      .gridline { stroke: #e6e9e3; stroke-width: 1; }
      .axis-line { stroke: #d8dcd6; stroke-width: 1; }
      .whisker { stroke: #7c8a8d; stroke-width: 1.4; }
      .ref-line { stroke: #7c8a8d; stroke-width: 1; stroke-dasharray: 3 3; }
  </style>
  <rect x="0" y="0" width="100%" height="100%" fill="#ffffff"/>
  <line x1="246.7" y1="6" x2="246.7" y2="666" class="gridline"/><text x="246.7" y="8" text-anchor="middle" class="axis-lab">96%</text><line x1="360.0" y1="6" x2="360.0" y2="666" class="gridline"/><text x="360.0" y="8" text-anchor="middle" class="axis-lab">97%</text><line x1="473.3" y1="6" x2="473.3" y2="666" class="gridline"/><text x="473.3" y="8" text-anchor="middle" class="axis-lab">98%</text><line x1="586.7" y1="6" x2="586.7" y2="666" class="gridline"/><text x="586.7" y="8" text-anchor="middle" class="axis-lab">99%</text><line x1="700.0" y1="6" x2="700.0" y2="666" class="gridline"/><text x="700.0" y="8" text-anchor="middle" class="axis-lab">100%</text><text x="182" y="19" text-anchor="end" class="tick-lab">ggt</text><rect x="190" y="11.5" width="507.0" height="9" rx="1.5" fill="#2a78d6" class="mbar"/><text x="703.0" y="19" class="val-lab">99.97%</text><text x="182" y="32" text-anchor="end" class="tick-lab">crp</text><rect x="190" y="24.5" width="496.3" height="9" rx="1.5" fill="#2a78d6" class="mbar"/><text x="692.3" y="32" class="val-lab">99.88%</text><text x="182" y="45" text-anchor="end" class="tick-lab">amylase</text><rect x="190" y="37.5" width="494.3" height="9" rx="1.5" fill="#2a78d6" class="mbar"/><text x="690.3" y="45" class="val-lab">99.86%</text><text x="182" y="58" text-anchor="end" class="tick-lab">bnp</text><rect x="190" y="50.5" width="494.2" height="9" rx="1.5" fill="#2a78d6" class="mbar"/><text x="690.2" y="58" class="val-lab">99.86%</text><text x="182" y="71" text-anchor="end" class="tick-lab">bilirubin direct</text><rect x="190" y="63.5" width="492.6" height="9" rx="1.5" fill="#2a78d6" class="mbar"/><text x="688.6" y="71" class="val-lab">99.85%</text><text x="182" y="84" text-anchor="end" class="tick-lab">bilirubin indirect</text><rect x="190" y="76.5" width="491.9" height="9" rx="1.5" fill="#2a78d6" class="mbar"/><text x="687.9" y="84" class="val-lab">99.84%</text><text x="182" y="97" text-anchor="end" class="tick-lab">tibc</text><rect x="190" y="89.5" width="490.4" height="9" rx="1.5" fill="#2a78d6" class="mbar"/><text x="686.4" y="97" class="val-lab">99.83%</text><text x="182" y="110" text-anchor="end" class="tick-lab">transferrin</text><rect x="190" y="102.5" width="490.4" height="9" rx="1.5" fill="#2a78d6" class="mbar"/><text x="686.4" y="110" class="val-lab">99.83%</text><text x="182" y="123" text-anchor="end" class="tick-lab">iron</text><rect x="190" y="115.5" width="488.6" height="9" rx="1.5" fill="#2a78d6" class="mbar"/><text x="684.6" y="123" class="val-lab">99.81%</text><text x="182" y="136" text-anchor="end" class="tick-lab">ferritin</text><rect x="190" y="128.5" width="486.5" height="9" rx="1.5" fill="#2a78d6" class="mbar"/><text x="682.5" y="136" class="val-lab">99.79%</text><text x="182" y="149" text-anchor="end" class="tick-lab">uric acid</text><rect x="190" y="141.5" width="483.6" height="9" rx="1.5" fill="#2a78d6" class="mbar"/><text x="679.6" y="149" class="val-lab">99.77%</text><text x="182" y="162" text-anchor="end" class="tick-lab">total protein</text><rect x="190" y="154.5" width="480.3" height="9" rx="1.5" fill="#2a78d6" class="mbar"/><text x="676.3" y="162" class="val-lab">99.74%</text><text x="182" y="175" text-anchor="end" class="tick-lab">troponin</text><rect x="190" y="167.5" width="475.6" height="9" rx="1.5" fill="#2a78d6" class="mbar"/><text x="671.6" y="175" class="val-lab">99.70%</text><text x="182" y="188" text-anchor="end" class="tick-lab">triglycerides</text><rect x="190" y="180.5" width="472.8" height="9" rx="1.5" fill="#2a78d6" class="mbar"/><text x="668.8" y="188" class="val-lab">99.67%</text><text x="182" y="201" text-anchor="end" class="tick-lab">cholesterol total</text><rect x="190" y="193.5" width="471.9" height="9" rx="1.5" fill="#2a78d6" class="mbar"/><text x="667.9" y="201" class="val-lab">99.66%</text><text x="182" y="214" text-anchor="end" class="tick-lab">lipase</text><rect x="190" y="206.5" width="471.2" height="9" rx="1.5" fill="#2a78d6" class="mbar"/><text x="667.2" y="214" class="val-lab">99.66%</text><text x="182" y="227" text-anchor="end" class="tick-lab">ck</text><rect x="190" y="219.5" width="449.3" height="9" rx="1.5" fill="#2a78d6" class="mbar"/><text x="645.3" y="227" class="val-lab">99.46%</text><text x="182" y="240" text-anchor="end" class="tick-lab">pco2</text><rect x="190" y="232.5" width="445.6" height="9" rx="1.5" fill="#2a78d6" class="mbar"/><text x="641.6" y="240" class="val-lab">99.43%</text><text x="182" y="253" text-anchor="end" class="tick-lab">base excess</text><rect x="190" y="245.5" width="445.6" height="9" rx="1.5" fill="#2a78d6" class="mbar"/><text x="641.6" y="253" class="val-lab">99.43%</text><text x="182" y="266" text-anchor="end" class="tick-lab">po2</text><rect x="190" y="258.5" width="445.6" height="9" rx="1.5" fill="#2a78d6" class="mbar"/><text x="641.6" y="266" class="val-lab">99.43%</text><text x="182" y="279" text-anchor="end" class="tick-lab">ph</text><rect x="190" y="271.5" width="439.3" height="9" rx="1.5" fill="#2a78d6" class="mbar"/><text x="635.3" y="279" class="val-lab">99.38%</text><text x="182" y="292" text-anchor="end" class="tick-lab">lactate</text><rect x="190" y="284.5" width="431.2" height="9" rx="1.5" fill="#2a78d6" class="mbar"/><text x="627.2" y="292" class="val-lab">99.30%</text><text x="182" y="305" text-anchor="end" class="tick-lab">ldh</text><rect x="190" y="297.5" width="425.9" height="9" rx="1.5" fill="#2a78d6" class="mbar"/><text x="621.9" y="305" class="val-lab">99.26%</text><text x="182" y="318" text-anchor="end" class="tick-lab">serum albumin</text><rect x="190" y="310.5" width="373.4" height="9" rx="1.5" fill="#2a78d6" class="mbar"/><text x="569.4" y="318" class="val-lab">98.79%</text><text x="182" y="331" text-anchor="end" class="tick-lab">ptt</text><rect x="190" y="323.5" width="319.1" height="9" rx="1.5" fill="#2a78d6" class="mbar"/><text x="515.1" y="331" class="val-lab">98.32%</text><text x="182" y="344" text-anchor="end" class="tick-lab">alkaline phosphatase</text><rect x="190" y="336.5" width="315.7" height="9" rx="1.5" fill="#2a78d6" class="mbar"/><text x="511.7" y="344" class="val-lab">98.29%</text><text x="182" y="357" text-anchor="end" class="tick-lab">bilirubin total</text><rect x="190" y="349.5" width="311.8" height="9" rx="1.5" fill="#2a78d6" class="mbar"/><text x="507.8" y="357" class="val-lab">98.25%</text><text x="182" y="370" text-anchor="end" class="tick-lab">ast</text><rect x="190" y="362.5" width="290.1" height="9" rx="1.5" fill="#2a78d6" class="mbar"/><text x="486.1" y="370" class="val-lab">98.06%</text><text x="182" y="383" text-anchor="end" class="tick-lab">alt</text><rect x="190" y="375.5" width="286.8" height="9" rx="1.5" fill="#2a78d6" class="mbar"/><text x="482.8" y="383" class="val-lab">98.03%</text><text x="182" y="396" text-anchor="end" class="tick-lab">inr</text><rect x="190" y="388.5" width="275.7" height="9" rx="1.5" fill="#2a78d6" class="mbar"/><text x="471.7" y="396" class="val-lab">97.93%</text><text x="182" y="409" text-anchor="end" class="tick-lab">phosphate</text><rect x="190" y="401.5" width="205.3" height="9" rx="1.5" fill="#2a78d6" class="mbar"/><text x="401.3" y="409" class="val-lab">97.31%</text><text x="182" y="422" text-anchor="end" class="tick-lab">magnesium</text><rect x="190" y="414.5" width="199.7" height="9" rx="1.5" fill="#2a78d6" class="mbar"/><text x="395.7" y="422" class="val-lab">97.26%</text><text x="182" y="435" text-anchor="end" class="tick-lab">calcium</text><rect x="190" y="427.5" width="182.8" height="9" rx="1.5" fill="#2a78d6" class="mbar"/><text x="378.8" y="435" class="val-lab">97.11%</text><text x="182" y="448" text-anchor="end" class="tick-lab">glucose</text><rect x="190" y="440.5" width="107.1" height="9" rx="1.5" fill="#2a78d6" class="mbar"/><text x="303.1" y="448" class="val-lab">96.45%</text><text x="182" y="461" text-anchor="end" class="tick-lab">anion gap</text><rect x="190" y="453.5" width="53.0" height="9" rx="1.5" fill="#2a78d6" class="mbar"/><text x="249.0" y="461" class="val-lab">95.97%</text><text x="182" y="474" text-anchor="end" class="tick-lab">bicarbonate</text><rect x="190" y="466.5" width="51.9" height="9" rx="1.5" fill="#2a78d6" class="mbar"/><text x="247.9" y="474" class="val-lab">95.96%</text><text x="182" y="487" text-anchor="end" class="tick-lab">chloride</text><rect x="190" y="479.5" width="32.1" height="9" rx="1.5" fill="#2a78d6" class="mbar"/><text x="228.1" y="487" class="val-lab">95.78%</text><text x="182" y="500" text-anchor="end" class="tick-lab">rdw</text><rect x="190" y="492.5" width="30.3" height="9" rx="1.5" fill="#2a78d6" class="mbar"/><text x="226.3" y="500" class="val-lab">95.77%</text><text x="182" y="513" text-anchor="end" class="tick-lab">mch</text><rect x="190" y="505.5" width="30.1" height="9" rx="1.5" fill="#2a78d6" class="mbar"/><text x="226.1" y="513" class="val-lab">95.77%</text><text x="182" y="526" text-anchor="end" class="tick-lab">mcv</text><rect x="190" y="518.5" width="30.0" height="9" rx="1.5" fill="#2a78d6" class="mbar"/><text x="226.0" y="526" class="val-lab">95.77%</text><text x="182" y="539" text-anchor="end" class="tick-lab">rbc</text><rect x="190" y="531.5" width="30.0" height="9" rx="1.5" fill="#2a78d6" class="mbar"/><text x="226.0" y="539" class="val-lab">95.77%</text><text x="182" y="552" text-anchor="end" class="tick-lab">mchc</text><rect x="190" y="544.5" width="30.0" height="9" rx="1.5" fill="#2a78d6" class="mbar"/><text x="226.0" y="552" class="val-lab">95.76%</text><text x="182" y="565" text-anchor="end" class="tick-lab">sodium</text><rect x="190" y="557.5" width="28.0" height="9" rx="1.5" fill="#2a78d6" class="mbar"/><text x="224.0" y="565" class="val-lab">95.75%</text><text x="182" y="578" text-anchor="end" class="tick-lab">hemoglobin</text><rect x="190" y="570.5" width="26.8" height="9" rx="1.5" fill="#2a78d6" class="mbar"/><text x="222.8" y="578" class="val-lab">95.74%</text><text x="182" y="591" text-anchor="end" class="tick-lab">wbc</text><rect x="190" y="583.5" width="24.7" height="9" rx="1.5" fill="#2a78d6" class="mbar"/><text x="220.7" y="591" class="val-lab">95.72%</text><text x="182" y="604" text-anchor="end" class="tick-lab">platelet count</text><rect x="190" y="596.5" width="21.8" height="9" rx="1.5" fill="#2a78d6" class="mbar"/><text x="217.8" y="604" class="val-lab">95.69%</text><text x="182" y="617" text-anchor="end" class="tick-lab">potassium</text><rect x="190" y="609.5" width="21.1" height="9" rx="1.5" fill="#2a78d6" class="mbar"/><text x="217.1" y="617" class="val-lab">95.69%</text><text x="182" y="630" text-anchor="end" class="tick-lab">urea nitrogen</text><rect x="190" y="622.5" width="14.1" height="9" rx="1.5" fill="#2a78d6" class="mbar"/><text x="210.1" y="630" class="val-lab">95.62%</text><text x="182" y="643" text-anchor="end" class="tick-lab">hematocrit</text><rect x="190" y="635.5" width="5.8" height="9" rx="1.5" fill="#2a78d6" class="mbar"/><text x="201.8" y="643" class="val-lab">95.55%</text><text x="182" y="656" text-anchor="end" class="tick-lab">egfr</text><rect x="190" y="648.5" width="2.0" height="9" rx="1.5" fill="#2a78d6" class="mbar"/><text x="198.0" y="656" class="val-lab">95.49%</text>
</svg>
